PathFileType	4	(X/Y/Z)	P:\Projects\LMB_grand_challenge_database\project_only\opensim\experimental_data\SixthCompetition/DM_ngait_og6_new.trc
DataRate	CameraRate	NumFrames	NumMarkers	Units	OrigDataRate	OrigDataStartFrame	OrigNumFrames
120	120	4	68	mm	120	42	342
Frame#	Time	Sternum			Neck			R_Shoulder			L_Shoulder			Xiphoid			Thoracic			R_Asis			L_Asis			R_Psis			L_Psis			Lumbar			R_Elbow			R_ElbowMedial			R_ShoulderAnterior			R_ShoulderPosterior			R_Wrist			R_Radius			R_Ulna			L_Elbow			L_ElbowMedial			L_ShoulderAnterior			L_ShoulderPosterior			L_Wrist			L_Ulna			L_Radius			L_Thigh_Superior			L_Thigh_Inferior			L_Thigh_Lateral			L_Knee_Lateral			L_Knee_Medial			L_Patella			L_Shank_Superior			L_Shank_Inferior			L_Shank_Lateral			L_Ankle_Lateral			L_Ankle_Medial			R_Thigh_Superior			R_Thigh_Inferior			R_Thigh_Lateral			R_Knee_Lateral			R_Knee_Medial			R_Patella			R_Shank_Superior			R_Shank_Inferior			R_Shank_Lateral			R_Ankle_Lateral			RankleMedial			R_Heel			R_Toe			R_Midfoot_Medial			R_Midfoot_Lateral			R_Hindfoot			R_Midfoot_Superior			R_ToeMedial			R_ToeLateral			L_Heel			L_Toe			L_Midfoot_Medial			L_Midfoot_Lateral			L_Hindfoot			L_Midfoot_Superior			L_ToeMedial			L_ToeLateral			Oglobal			Sacral			Xglobal			Yglobal			Zglobal			
		X1	Y1	Z1	X2	Y2	Z2	X3	Y3	Z3	X4	Y4	Z4	X5	Y5	Z5	X6	Y6	Z6	X7	Y7	Z7	X8	Y8	Z8	X9	Y9	Z9	X10	Y10	Z10	X11	Y11	Z11	X12	Y12	Z12	X13	Y13	Z13	X14	Y14	Z14	X15	Y15	Z15	X16	Y16	Z16	X17	Y17	Z17	X18	Y18	Z18	X19	Y19	Z19	X20	Y20	Z20	X21	Y21	Z21	X22	Y22	Z22	X23	Y23	Z23	X24	Y24	Z24	X25	Y25	Z25	X26	Y26	Z26	X27	Y27	Z27	X28	Y28	Z28	X29	Y29	Z29	X30	Y30	Z30	X31	Y31	Z31	X32	Y32	Z32	X33	Y33	Z33	X34	Y34	Z34	X35	Y35	Z35	X36	Y36	Z36	X37	Y37	Z37	X38	Y38	Z38	X39	Y39	Z39	X40	Y40	Z40	X41	Y41	Z41	X42	Y42	Z42	X43	Y43	Z43	X44	Y44	Z44	X45	Y45	Z45	X46	Y46	Z46	X47	Y47	Z47	X48	Y48	Z48	X49	Y49	Z49	X50	Y50	Z50	X51	Y51	Z51	X52	Y52	Z52	X53	Y53	Z53	X54	Y54	Z54	X55	Y55	Z55	X56	Y56	Z56	X57	Y57	Z57	X58	Y58	Z58	X59	Y59	Z59	X60	Y60	Z60	X61	Y61	Z61	X62	Y62	Z62	X63	Y63	Z63	X64	Y64	Z64	X65	Y65	Z65	X66	Y66	Z66	X67	Y67	Z67	X68	Y68	Z68	

43	2.758333	-864.391	1462.53	127.483	-700.769	1384.19	137.187	-775.784	1418.59	305.222	-780.256	1417.18	-40.5178	-684.52	1215.16	147.552	-952.58	1277.39	127.334	-780.1950000000001	982.111	277.487	-747.086	993.275	3.98738	-968.7140000000001	1028.17	148.253	-961.925	1026.37	70.59950000000001	-963.242	1076.61	114.296	-846.426	1109.99	408.552	-0	0	0	-0	0	0	-0	0	0	-766.671	840.968	400.673	-753.074	855.067	358.73	-815.359	841.929	401.394	-764.693	1082.72	-138.023	-0	0	0	-0	0	0	-0	0	0	-651.678	840.312	-131.227	-696.966	837.902	-141.869	-653.236	856.116	-85.8552	-809.509	810.934	-27.2479	-789.647	594.505	28.5255	-742.409	684.59	47.7036	-0	0	0	-0	0	0	-758.848	505.732	93.2732	-834.65	441.855	24.087	-903.42	179.604	30.8529	-837.682	297.545	98.7567	-0	0	0	-0	0	0	-833.927	801.543	303.914	-747.578	600.23	281.774	-721.85	741.2670000000001	300.205	-0	0	0	-0	0	0	-643.527	517.293	228.87	-811.474	447.004	288.419	-894.316	257.6	265.889	-774.502	343.703	210.154	-0	0	0	-0	0	0	-1009.09	172.252	195.206	-747.712	32.0569	235.583	-815.645	50.636	170.65	-848.103	44.7873	283.188	-946.032	93.23350000000001	255.443	-841.038	150.996	229.107	-776.444	38.3261	186.461	-799.348	33.3037	274.322	-996.109	64.9002	88.1391	-695.049	52.8444	71.42440000000001	-775.9	33.5444	129.279	-791.8819999999999	31.4287	15.938	-897.109	28.373	28.0874	-829.923	119.64	75.9379	-730.511	35.8865	117.041	-735.292	36.7632	20.8777	-0	0	0	-965.3200000000001	1027.27	109.426	-200	0	0	-0	0	200	-0	200	0	
44	2.766667	-856.539	1462.56	126.743	-693.1559999999999	1383.78	137.672	-769.761	1418.47	305.305	-770.73	1417.26	-40.4109	-677.285	1214.75	147.852	-945.165	1277.5	126.163	-773.684	982.091	277.531	-739.3339999999999	993.193	4.41995	-961.617	1028.33	147.523	-954.515	1026.4	69.85429999999999	-955.925	1076.69	113.603	-841.831	1109.91	408.282	-0	0	0	-0	0	0	-0	0	0	-760.705	841.038	401.865	-745.9690000000001	855.454	360.13	-809.633	841.819	401.446	-750.585	1083.37	-138.201	-0	0	0	-0	0	0	-0	0	0	-633.349	842.646	-129.026	-678.5700000000001	839.689	-140.644	-636.08	857.899	-83.7843	-801.777	810.115	-25.9081	-784.953	594.14	29.6939	-737.603	683.797	49.1162	-0	0	0	-0	0	0	-756.9400000000001	504.687	94.00069999999999	-832.58	441.138	24.1388	-902.521	179.086	30.759	-837.4059999999999	296.843	99.3539	-0	0	0	-0	0	0	-827.006	801.888	304.188	-737.914	601.761	281.629	-713.255	742.989	299.939	-0	0	0	-0	0	0	-632.689	520.4450000000001	229.241	-798.082	445.283	288.299	-871.8200000000001	251.645	266.698	-755.982	342.591	210.804	-0	0	0	-0	0	0	-983.453	161.389	196.397	-716.17	32.571	237.352	-785.158	47.6309	172.846	-817.347	41.4464	285.443	-917.047	85.50230000000001	257.375	-814.899	147.392	230.376	-744.7569999999999	37.5305	188.343	-767.92	32.2459	276.202	-996.013	65.3944	87.83450000000001	-695.724	53.7158	69.9791	-776.0119999999999	33.6851	129.808	-791.653	31.0375	16.4309	-896.596	28.2462	28.1186	-829.8819999999999	119.572	75.8845	-730.902	35.6356	116.917	-735.3579999999999	36.5524	20.9244	-0	0	0	-958.066	1027.37	108.689	-200	0	0	-0	0	200	-0	200	0	
45	2.775	-848.706	1462.54	126.088	-685.484	1383.44	138.066	-763.341	1418.04	305.364	-761.562	1417.24	-40.4988	-670.0890000000001	1214.31	148.332	-937.6609999999999	1277.58	125.195	-767.407	982.096	278.142	-731.573	992.732	5.05397	-954.593	1028.34	147.061	-947.059	1026.28	69.3002	-948.658	1076.64	113.024	-836.6	1109.47	408.041	-0	0	0	-0	0	0	-0	0	0	-754.758	840.996	403.061	-738.673	855.793	361.188	-803.302	841.324	401.393	-736.492	1083.8	-138.23	-0	0	0	-0	0	0	-0	0	0	-615.449	844.981	-126.665	-660.225	841.386	-138.916	-619.346	860.3150000000001	-81.6413	-796.522	811.463	-26.1811	-780.497	593.514	30.7935	-733.1420000000001	683.635	50.7721	-0	0	0	-0	0	0	-755.779	503.862	94.6972	-829.984	440.554	24.5818	-901.643	178.913	30.7154	-836.5839999999999	296.314	99.82340000000001	-0	0	0	-0	0	0	-819.764	802.12	304.406	-728.639	602.974	281.512	-704.95	744.371	299.685	-0	0	0	-0	0	0	-621.919	523.401	229.061	-784.193	442.54	287.708	-849.776	245.815	267.548	-737.612	341.214	211.734	-0	0	0	-0	0	0	-958.904	152.05	197.313	-684.7329999999999	34.4536	240.028	-756.4930000000001	45.7378	174	-788.475	38.5187	286.594	-887.996	78.3612	259.007	-788.379	144.331	231.692	-713.761	37.9509	190.78	-736.828	32.5337	278.912	-995.9880000000001	65.52670000000001	87.76990000000001	-695.5940000000001	53.7351	69.97410000000001	-776.071	33.7093	130.097	-791.581	30.7419	16.7098	-896.451	28.1376	28.2845	-829.747	119.506	75.8527	-730.946	35.3303	116.836	-735.218	36.437	20.9315	-0	0	0	-950.826	1027.31	108.181	-200	0	0	-0	0	200	-0	200	0	
46	2.783333	-840.776	1462.36	125.504	-678.044	1382.89	138.65	-756.885	1417.43	305.509	-752.21	1417.01	-40.3468	-662.768	1213.87	148.775	-930.1849999999999	1277.6	124.332	-760.749	981.575	278.375	-723.9059999999999	992.543	5.57621	-947.379	1028.31	146.683	-939.645	1026.15	68.92	-941.29	1076.54	112.784	-831.327	1109.1	407.682	-0	0	0	-0	0	0	-0	0	0	-748.7190000000001	840.862	404.229	-730.976	856.242	362.895	-797.436	841.08	401.502	-722.708	1084.25	-138.218	-0	0	0	-0	0	0	-0	0	0	-597.4640000000001	847.574	-124.473	-642.093	843.26	-137.319	-602.183	863.028	-79.5188	-790.971	811.634	-26.1637	-776.591	592.938	31.7258	-728.319	683.448	52.4016	-0	0	0	-0	0	0	-754.15	502.683	95.05549999999999	-826.889	440.416	24.9516	-900.739	179.11	30.6351	-838.245	296.439	100.695	-0	0	0	-0	0	0	-812.848	802.413	305.089	-719.643	603.83	281.228	-697.124	745.359	299.559	-0	0	0	-0	0	0	-611.496	526.602	228.913	-770.526	439.769	287.409	-827.775	240.251	268.501	-719.436	339.775	212.736	-0	0	0	-0	0	0	-932.687	142.137	197.921	-654.193	36.9058	243.668	-725.823	44.2343	176.98	-758.124	37.0152	289.483	-859.34	72.2736	260.827	-762.419	142.071	233.246	-682.989	37.6538	194.672	-706.237	33.159	282.422	-995.92	65.6362	87.7483	-695.496	53.568	70.0292	-776.0309999999999	33.6802	130.12	-791.527	30.6793	16.7311	-896.402	28.092	28.2459	-829.5890000000001	119.509	75.8301	-730.948	35.1766	116.73	-735.075	36.1498	20.9046	-0	0	0	-943.5119999999999	1027.23	107.802	-200	0	0	-0	0	200	-0	200	0	
